<svg width="24" height="24" viewBox="0 0 24 24" fill="none" xmlns="http://www.w3.org/2000/svg">
<path fill-rule="evenodd" clip-rule="evenodd" d="M21.1236 3.27322C21.2308 3.38052 21.303 3.51781 21.3306 3.66698C21.3582 3.81614 21.3399 3.97017 21.2781 4.10872L12.7926 23.2007C12.7333 23.3342 12.6363 23.4475 12.5135 23.5267C12.3908 23.6059 12.2475 23.6474 12.1014 23.6463C11.9553 23.6452 11.8128 23.6015 11.6912 23.5204C11.5696 23.4394 11.4744 23.3246 11.4171 23.1902L8.35562 16.0412L1.20512 12.9782C1.07121 12.9206 0.956984 12.8252 0.876418 12.7038C0.795851 12.5823 0.752436 12.4399 0.751481 12.2942C0.750526 12.1484 0.792073 12.0055 0.871041 11.883C0.950009 11.7604 1.06297 11.6636 1.19612 11.6042L20.2881 3.11872C20.4265 3.05729 20.5802 3.03917 20.7291 3.06675C20.8779 3.09432 21.0149 3.1663 21.1221 3.27322H21.1236Z" fill="#5227FC"/>
</svg>
