<svg width="60" height="60" viewBox="0 0 60 60" fill="none" xmlns="http://www.w3.org/2000/svg">
<path d="M39.375 22.875C33 22.875 26.8125 22.125 21.375 20.625C21 23.0625 20.625 25.6875 20.625 28.3125C20.625 44.8125 29.0625 58.125 39.375 58.125C49.6875 58.125 58.125 44.8125 58.125 28.3125C58.125 25.6875 57.9375 23.0625 57.375 20.625C51.9375 22.125 45.75 22.875 39.375 22.875Z" stroke="white" stroke-width="2" stroke-miterlimit="10" stroke-linecap="round" stroke-linejoin="round"/>
<path d="M39.375 45.1875C36.5625 45.1875 33.9375 44.4375 31.875 43.125C32.25 47.25 35.4375 50.625 39.375 50.625C43.3125 50.625 46.5 47.25 46.875 43.125C44.8125 44.4375 42.1875 45.1875 39.375 45.1875Z" stroke="white" stroke-width="2" stroke-miterlimit="10" stroke-linecap="round" stroke-linejoin="round"/>
<path d="M28.125 37.5C28.125 35.4375 29.8125 33.75 31.875 33.75C33.9375 33.75 35.625 35.4375 35.625 37.5" stroke="white" stroke-width="2" stroke-miterlimit="10" stroke-linecap="round" stroke-linejoin="round"/>
<path d="M43.125 37.5C43.125 35.4375 44.8125 33.75 46.875 33.75C48.9375 33.75 50.625 35.4375 50.625 37.5" stroke="white" stroke-width="2" stroke-miterlimit="10" stroke-linecap="round" stroke-linejoin="round"/>
<path d="M37.5 22.875C38.8125 18.9375 39.375 14.4375 39.375 9.75C39.375 7.125 39.1875 4.5 38.625 2.0625C33 3.5625 27 4.3125 20.625 4.3125C14.25 4.3125 8.0625 3.375 2.625 1.875C2.0625 4.3125 1.875 6.9375 1.875 9.5625C1.875 26.0625 10.3125 39.375 20.625 39.375C21 39.375 21.5625 39.375 21.9375 39.375" stroke="white" stroke-width="2" stroke-miterlimit="10" stroke-linecap="round" stroke-linejoin="round"/>
<path d="M20.625 27.9375C17.8125 27.9375 15.1875 28.6875 13.125 30C13.5 25.875 16.6875 22.5 20.625 22.5" stroke="white" stroke-width="2" stroke-miterlimit="10" stroke-linecap="round" stroke-linejoin="round"/>
<path d="M9.375 13.125C9.375 15.1875 11.0625 16.875 13.125 16.875C15.1875 16.875 16.875 15.1875 16.875 13.125" stroke="white" stroke-width="2" stroke-miterlimit="10" stroke-linecap="round" stroke-linejoin="round"/>
<path d="M24.375 13.125C24.375 15.1875 26.0625 16.875 28.125 16.875C30.1875 16.875 31.875 15.1875 31.875 13.125" stroke="white" stroke-width="2" stroke-miterlimit="10" stroke-linecap="round" stroke-linejoin="round"/>
</svg>
