<svg width="60" height="60" viewBox="0 0 60 60" fill="none" xmlns="http://www.w3.org/2000/svg">
<path d="M57.355 17.0925L51.9 11.635L54.2675 9.2675C54.5063 9.03689 54.6967 8.76102 54.8278 8.45601C54.9588 8.151 55.0278 7.82295 55.0306 7.49101C55.0335 7.15906 54.9703 6.82986 54.8446 6.52262C54.7189 6.21538 54.5332 5.93625 54.2985 5.70152C54.0638 5.46678 53.7846 5.28115 53.4774 5.15545C53.1702 5.02975 52.841 4.96649 52.509 4.96938C52.1771 4.97226 51.849 5.04123 51.544 5.17225C51.239 5.30327 50.9631 5.49373 50.7325 5.7325L48.365 8.1L42.9075 2.645C41.1874 1.00581 38.9024 0.0914307 36.5263 0.0914307C34.1502 0.0914307 31.8652 1.00581 30.145 2.645C29.3064 3.48292 28.6411 4.47788 28.1873 5.57302C27.7334 6.66817 27.4998 7.84203 27.4998 9.0275C27.4998 10.213 27.7334 11.3868 28.1873 12.482C28.6411 13.5771 29.3064 14.5721 30.145 15.41L35.6 20.865L20.865 35.6L15.4075 30.145C13.6874 28.5058 11.4024 27.5914 9.02626 27.5914C6.65016 27.5914 4.36517 28.5058 2.64501 30.145C1.80641 30.9829 1.14115 31.9779 0.687264 33.073C0.233376 34.1682 -0.000244141 35.342 -0.000244141 36.5275C-0.000244141 37.713 0.233376 38.8868 0.687264 39.982C1.14115 41.0771 1.80641 42.0721 2.64501 42.91L8.10001 48.365L5.73251 50.7325C5.49374 50.9631 5.30328 51.239 5.17226 51.544C5.04124 51.849 4.97227 52.1771 4.96939 52.509C4.9665 52.841 5.02976 53.1701 5.15546 53.4774C5.28116 53.7846 5.4668 54.0638 5.70153 54.2985C5.93626 54.5332 6.21539 54.7189 6.52263 54.8446C6.82987 54.9703 7.15907 55.0335 7.49102 55.0306C7.82297 55.0277 8.15102 54.9588 8.45603 54.8278C8.76104 54.6967 9.0369 54.5063 9.26751 54.2675L11.635 51.9L17.0925 57.355C17.9304 58.1932 18.9252 58.8582 20.0201 59.3118C21.115 59.7655 22.2886 59.999 23.4738 59.999C24.6589 59.999 25.8325 59.7655 26.9274 59.3118C28.0223 58.8582 29.0171 58.1932 29.855 57.355C30.6935 56.5173 31.3587 55.5225 31.8126 54.4276C32.2665 53.3327 32.5001 52.159 32.5001 50.9738C32.5001 49.7885 32.2665 48.6148 31.8126 47.5199C31.3587 46.425 30.6935 45.4302 29.855 44.5925L24.4 39.1375L39.15 24.4L44.605 29.855C45.4429 30.6932 46.4377 31.3582 47.5326 31.8118C48.6275 32.2655 49.8011 32.499 50.9863 32.499C52.1714 32.499 53.345 32.2655 54.4399 31.8118C55.5348 31.3582 56.5296 30.6932 57.3675 29.855C58.206 29.0173 58.8712 28.0226 59.3251 26.9276C59.7789 25.8327 60.0126 24.659 60.0126 23.4738C60.0126 22.2885 59.7789 21.1148 59.3251 20.0199C58.8712 18.925 58.206 17.9302 57.3675 17.0925H57.355ZM27.5 50.975C27.5011 51.5037 27.3974 52.0273 27.1948 52.5156C26.9923 53.004 26.6949 53.4473 26.32 53.82C25.5537 54.553 24.5342 54.9622 23.4738 54.9622C22.4133 54.9622 21.3938 54.553 20.6275 53.82L6.18001 39.3725C5.42514 38.6176 5.00106 37.5938 5.00106 36.5263C5.00106 35.4587 5.42514 34.4349 6.18001 33.68C6.93489 32.9251 7.95871 32.501 9.02626 32.501C10.0938 32.501 11.1176 32.9251 11.8725 33.68L26.32 48.1275C26.6952 48.5005 26.9928 48.9442 27.1953 49.433C27.3979 49.9218 27.5014 50.4459 27.5 50.975ZM53.82 26.32C53.0537 27.053 52.0342 27.4622 50.9738 27.4622C49.9133 27.4622 48.8938 27.053 48.1275 26.32L33.68 11.8725C33.3062 11.4987 33.0097 11.055 32.8075 10.5666C32.6052 10.0783 32.5011 9.55485 32.5011 9.02625C32.5011 8.49765 32.6052 7.97423 32.8075 7.48587C33.0097 6.99751 33.3062 6.55378 33.68 6.18C34.0538 5.80623 34.4975 5.50973 34.9859 5.30745C35.4742 5.10516 35.9977 5.00105 36.5263 5.00105C37.0549 5.00105 37.5783 5.10516 38.0666 5.30745C38.555 5.50973 38.9987 5.80623 39.3725 6.18L53.82 20.6275C54.1941 21.0011 54.4909 21.4448 54.6934 21.9332C54.8959 22.4215 55.0001 22.9451 55.0001 23.4738C55.0001 24.0024 54.8959 24.526 54.6934 25.0143C54.4909 25.5027 54.1941 25.9464 53.82 26.32Z" fill="white"/>
</svg>
