<svg width="48" height="40" viewBox="0 0 48 40" fill="none" xmlns="http://www.w3.org/2000/svg">
<path d="M40 8H32V0H0V16C0.0532 24.8364 7.2596 31.9564 16.096 31.9032C21.738 31.8692 26.9448 28.8664 29.8 24H40C44.4184 24 48 20.4184 48 16C48 11.5816 44.4184 8 40 8ZM40 20H31.44C31.7948 18.6956 31.9832 17.3516 32 16V12H40C42.2092 12 44 13.7908 44 16C44 18.2092 42.2092 20 40 20ZM32 38C32 39.1044 31.1044 40 30 40H2C0.8956 40 0 39.1044 0 38C0 36.8956 0.8956 36 2 36H30C31.1044 36 32 36.8956 32 38Z" fill="white"/>
</svg>
