<svg width="60" height="54" viewBox="0 0 60 54" fill="none" xmlns="http://www.w3.org/2000/svg">
<path d="M58.2383 50.3783H57.8107V3.62173H58.2685C59.2249 3.62173 60 2.84661 60 1.89026C60 0.933906 59.2249 0.158783 58.2685 0.158783H34.5643C33.6079 0.158783 32.8328 0.933906 32.8328 1.89026C32.8328 2.84661 33.6079 3.62173 34.5643 3.62173H35.0221V12.3638H5.69232V6.59217C5.69232 5.63582 4.91719 4.8607 3.96084 4.8607C3.00449 4.8607 2.22937 5.63582 2.22937 6.59217V50.3783H1.73147C0.775123 50.3783 0 51.1534 0 52.1097C0 53.0661 0.775123 53.8412 1.73147 53.8412H6.19021C7.14656 53.8412 7.92169 53.0661 7.92169 52.1097C7.92169 51.1534 7.14656 50.3783 6.19021 50.3783H5.69232V44.3812H35.0221V50.3783H34.5243C33.5679 50.3783 32.7928 51.1534 32.7928 52.1097C32.7928 53.0661 33.5679 53.8412 34.5243 53.8412H38.9828C39.9391 53.8412 40.7143 53.0661 40.7143 52.1097C40.7143 51.1534 39.9391 50.3783 38.9828 50.3783H38.4851V15.8267H54.3477V50.3783H53.7798C52.8234 50.3783 52.0483 51.1534 52.0483 52.1097C52.0483 53.0661 52.8234 53.8412 53.7798 53.8412H58.2383C59.1947 53.8412 59.9698 53.0661 59.9698 52.1097C59.9698 51.1534 59.1947 50.3783 58.2383 50.3783ZM54.3477 3.62173V12.3638H38.4851V3.62173H54.3477ZM35.0221 32.9594V35.2075H5.69232V32.9594H35.0221ZM5.69232 29.4965V27.2485H35.0221V29.4965H5.69232ZM5.69232 23.7857V21.5377H35.0221V23.7857H5.69232ZM5.69232 38.6704H35.0221V40.9184H5.69232V38.6704ZM5.69232 18.0747V15.8267H35.0221V18.0747H5.69232Z" fill="white"/>
</svg>
