<svg width="52" height="51" viewBox="0 0 52 51" fill="none" xmlns="http://www.w3.org/2000/svg">
<path d="M38.1 25.075C39.1014 25.0874 40.0951 24.8991 41.0225 24.5213C41.95 24.1434 42.7923 23.5836 43.5 22.875L50.575 15.8C51.0406 15.3316 51.3019 14.698 51.3019 14.0375C51.3019 13.377 51.0406 12.7434 50.575 12.275C50.3426 12.0407 50.0661 11.8547 49.7614 11.7278C49.4568 11.6008 49.13 11.5355 48.8 11.5355C48.4699 11.5355 48.1432 11.6008 47.8385 11.7278C47.5339 11.8547 47.2574 12.0407 47.025 12.275L39.875 19.325C39.6426 19.5593 39.3661 19.7453 39.0614 19.8722C38.7568 19.9991 38.43 20.0645 38.1 20.0645C37.7699 20.0645 37.4432 19.9991 37.1385 19.8722C36.8339 19.7453 36.5574 19.5593 36.325 19.325L45.175 10.5C45.4081 10.2669 45.593 9.99017 45.7191 9.68562C45.8453 9.38106 45.9102 9.05464 45.9102 8.72499C45.9102 8.39535 45.8453 8.06893 45.7191 7.76437C45.593 7.45982 45.4081 7.18309 45.175 6.94999C44.9419 6.7169 44.6651 6.53199 44.3606 6.40584C44.056 6.27969 43.7296 6.21476 43.4 6.21476C43.0703 6.21476 42.7439 6.27969 42.4393 6.40584C42.1348 6.53199 41.8581 6.7169 41.625 6.94999L32.8 15.8C32.3343 15.3316 32.073 14.698 32.073 14.0375C32.073 13.377 32.3343 12.7434 32.8 12.275L39.875 5.19999C40.1081 4.9669 40.293 4.69017 40.4191 4.38562C40.5453 4.08106 40.6102 3.75464 40.6102 3.42499C40.6102 3.09535 40.5453 2.76893 40.4191 2.46437C40.293 2.15982 40.1081 1.88309 39.875 1.64999C39.6419 1.4169 39.3651 1.232 39.0606 1.10584C38.756 0.979694 38.4296 0.914764 38.1 0.914764C37.7703 0.914764 37.4439 0.979694 37.1393 1.10584C36.8348 1.232 36.5581 1.4169 36.325 1.64999L29.25 8.72499C27.8455 10.1312 27.0566 12.0375 27.0566 14.025C27.0566 16.0125 27.8455 17.9187 29.25 19.325L26 22.55L5.32497 1.79999L5.07497 1.64999C4.94717 1.53849 4.80405 1.44589 4.64997 1.37499L4.19997 1.19999L3.89997 0.999994H3.72497H3.22497C3.07592 0.97616 2.92402 0.97616 2.77497 0.999994C2.62362 1.05508 2.48061 1.13079 2.34997 1.22499L1.94997 1.47499H1.77497L1.62497 1.72499C1.51916 1.85699 1.42702 1.99939 1.34997 2.14999C1.27675 2.30244 1.21816 2.46148 1.17497 2.62499C1.17497 2.62499 1.17497 2.79999 1.17497 2.89999C0.568307 7.12852 0.955094 11.4402 2.30466 15.4933C3.65423 19.5463 5.92946 23.2292 8.94997 26.25L15.55 32.825L2.02497 46.325C1.79065 46.5574 1.60466 46.8339 1.47774 47.1385C1.35082 47.4432 1.28547 47.77 1.28547 48.1C1.28547 48.43 1.35082 48.7568 1.47774 49.0614C1.60466 49.3661 1.79065 49.6426 2.02497 49.875C2.25857 50.1067 2.53561 50.29 2.8402 50.4144C3.1448 50.5388 3.47095 50.6019 3.79997 50.6C4.12899 50.6019 4.45514 50.5388 4.75974 50.4144C5.06433 50.29 5.34137 50.1067 5.57497 49.875L20.75 34.925L27.825 27.85L32.825 22.85C34.2199 24.26 36.1166 25.06 38.1 25.075ZM18.975 29.625L12.4 23.025C8.79611 19.3718 6.53959 14.6032 5.99997 9.49999L22.525 26L18.975 29.625ZM34.575 31.05C34.1042 30.5759 33.4644 30.3083 32.7963 30.3059C32.1282 30.3036 31.4865 30.5667 31.0125 31.0375C30.5384 31.5083 30.2707 32.1481 30.2684 32.8162C30.2661 33.4842 30.5292 34.1259 31 34.6L46.75 50.35C47.2275 50.7845 47.8546 51.0174 48.5 51C48.829 51.0019 49.1551 50.9388 49.4597 50.8144C49.7643 50.69 50.0414 50.5067 50.275 50.275C50.5093 50.0426 50.6953 49.7661 50.8222 49.4614C50.9491 49.1568 51.0145 48.83 51.0145 48.5C51.0145 48.17 50.9491 47.8432 50.8222 47.5385C50.6953 47.2339 50.5093 46.9574 50.275 46.725L34.575 31.05Z" fill="white"/>
</svg>
