<svg width="52" height="48" viewBox="0 0 52 48" fill="none" xmlns="http://www.w3.org/2000/svg">
<path d="M17.4432 2.68L17.4032 18.76C15.9605 18.4311 14.4824 18.2833 13.0032 18.32C11.5232 18.72 10.0432 20.84 8.60317 21.36C7.78578 17.7066 8.21156 13.8848 9.81296 10.5008C11.4144 7.11685 14.0997 4.36441 17.4432 2.68ZM27.0832 0.120005L35.2032 13.92C36.1821 12.9283 37.3172 12.104 38.5632 11.48C40.0032 11.08 42.3232 12.16 43.9232 11.92C42.8186 8.36634 40.5659 5.27975 37.5183 3.14423C34.4706 1.00871 30.8004 -0.0549594 27.0832 0.120005ZM0.00317383 48H52.0032C49.3632 45.36 41.4432 43.56 34.6432 42.68L27.1632 14.68C29.2432 14.48 31.7632 14.8 33.2832 14.68L24.8432 0.280005H24.8032C23.8598 0.412515 22.9249 0.599495 22.0032 0.840005C21.1284 1.06686 20.2725 1.36108 19.4432 1.72L19.4032 18.32C20.8032 17.64 22.7632 16.16 24.6032 15.36L31.8032 42.32C29.4832 42.12 27.4432 42 26.0032 42C20.1232 42 4.00317 44 0.00317383 48Z" fill="white"/>
</svg>
