<svg width="60" height="60" viewBox="0 0 60 60" fill="none" xmlns="http://www.w3.org/2000/svg">
<path d="M48.3871 39.628C54.8719 39.1315 60 33.7074 60 27.0968C60 23.0652 58.1217 19.3771 54.9194 17.0091C56.6237 15.1453 57.5808 12.7104 57.5808 10.1613C57.5806 4.55804 53.0226 0 47.4195 0C43.7923 0 40.5136 1.92475 38.7078 4.95092C36.9301 1.99164 33.6968 0 30.0001 0C26.3013 0 23.0673 1.9935 21.2895 4.95587C19.4855 1.92785 16.2087 0 12.5807 0C6.97744 0 2.41941 4.55804 2.41941 10.1613C2.41941 12.7104 3.37652 15.1453 5.08077 17.0091C1.8783 19.3771 0 23.0652 0 27.0968C0 33.7074 5.12805 39.1317 11.6129 39.628V58.0645H0V60H60V58.0645H48.3871V39.628ZM38.7086 15.3784C39.059 15.962 39.4645 16.5106 39.9251 17.0149C39.5099 17.3285 39.1151 17.6818 38.7309 18.0563C38.3438 17.6857 37.9373 17.3333 37.5001 17.0102C37.9607 16.5048 38.3614 15.9562 38.7086 15.3784ZM22.4997 17.01C22.0604 17.3351 21.651 17.6902 21.2629 18.0629C20.8809 17.6855 20.4891 17.3275 20.0747 17.0149C20.5364 16.5097 20.94 15.9581 21.2872 15.3726C21.6357 15.9533 22.0373 16.5039 22.4997 17.01ZM11.6131 13.1788V25.531L7.20702 23.3284L6.34095 25.0597L11.6131 27.6949V37.6927C6.19541 37.202 1.93548 32.64 1.93548 27.0968C1.93548 23.3342 3.87097 19.9249 7.11288 17.9768L8.26446 17.2847L7.24356 16.4119C5.40779 14.8422 4.35489 12.5642 4.35489 10.1611C4.35489 5.62539 8.0448 1.93528 12.5807 1.93528C16.0105 1.93528 19.0617 4.05843 20.2686 7.25099C19.9917 8.17321 19.839 9.14973 19.839 10.1609C19.839 11.1587 19.9899 12.1381 20.2715 13.0738C20.2705 13.0756 20.2705 13.0766 20.2686 13.0785C19.7789 14.3647 18.9708 15.5113 17.9179 16.4115L16.897 17.2843L18.0486 17.9764C18.7347 18.3886 19.386 18.9006 19.9928 19.4996C19.0976 20.6695 18.4221 21.9846 17.9896 23.3976L17.9539 23.327L13.5486 25.5304V13.1786L16.8844 11.5103L16.0184 9.77899L12.581 11.4987L9.1425 9.78003L8.27644 11.5113L11.6131 13.1788ZM19.9878 34.6828C19.9926 34.6925 19.9955 34.7022 20.0004 34.713C18.2489 36.421 15.9678 37.471 13.5484 37.6946V27.6949L17.4997 25.7197C17.4503 26.1735 17.4194 26.6323 17.4194 27.0968C17.4194 29.9477 18.3833 32.5702 19.9878 34.6828ZM29.0323 58.0645H13.5484V39.6251C16.4468 39.3986 19.1767 38.1686 21.2806 36.1451C23.3255 38.1163 26.0323 39.3986 29.0323 39.628V58.0645ZM29.0323 13.1788V25.531L24.6262 23.3284L23.7601 25.0597L29.0323 27.6949V37.6927C23.6148 37.202 19.3548 32.64 19.3548 27.0968C19.3548 23.3342 21.2903 19.9249 24.5322 17.9768L25.6838 17.2847L24.6629 16.4119C22.8271 14.8422 21.7742 12.5642 21.7742 10.1611C21.7742 5.62539 25.4642 1.93548 30.0001 1.93548C34.5358 1.93548 38.226 5.62539 38.226 10.1613C38.226 12.5642 37.1731 14.8422 35.3381 16.4121L34.3172 17.285L35.4688 17.977C38.7097 19.9251 40.6452 23.3344 40.6452 27.097C40.6452 32.6402 36.3852 37.2022 30.9677 37.6927V27.6949L36.2391 25.0587L35.373 23.3274L30.9677 25.531V13.1786L34.3036 11.5103L33.4375 9.77899L30.0001 11.4987L26.5617 9.78003L25.6956 11.5113L29.0323 13.1788ZM46.4516 58.0645H30.9677V39.628C33.9669 39.3976 36.6716 38.1174 38.7165 36.148C40.8204 38.1717 43.5532 39.3996 46.4516 39.6251V58.0645ZM46.4516 37.6946C44.0314 37.471 41.7513 36.421 39.9996 34.713C40.0054 34.7022 40.0093 34.6917 40.014 34.681C41.6167 32.5694 42.5804 29.9468 42.5804 27.0968C42.5804 26.6323 42.5495 26.1735 42.5001 25.7197L46.4516 27.6949V37.6946ZM46.4516 13.1786V25.5308L42.0455 23.3282L42.0098 23.3988C41.5773 21.9859 40.9007 20.6708 40.0066 19.5008C40.6134 18.9009 41.2647 18.3899 41.9508 17.9776L43.1023 17.2856L42.0814 16.4127C41.0296 15.5128 40.2215 14.3659 39.7308 13.0797C39.7337 13.069 39.7347 13.0574 39.7376 13.0469C40.0134 12.1197 40.1604 11.15 40.1604 10.1622C40.1604 9.15097 40.0074 8.17445 39.7308 7.25223C40.9383 4.05863 43.9897 1.93548 47.4195 1.93548C51.9552 1.93548 55.6453 5.62539 55.6453 10.1613C55.6453 12.5642 54.5924 14.8422 52.7575 16.4121L51.7366 17.285L52.8882 17.977C56.129 19.9251 58.0645 23.3344 58.0645 27.097C58.0645 32.6402 53.8046 37.2022 48.3871 37.6927V27.6949L53.6584 25.0587L52.7924 23.3274L48.3873 25.5308V13.1786L51.7231 11.5103L50.8571 9.77899L47.4197 11.4987L43.9812 9.78003L43.1152 11.5113L46.4516 13.1786Z" fill="white"/>
</svg>
