<svg width="60" height="60" viewBox="0 0 60 60" fill="none" xmlns="http://www.w3.org/2000/svg">
<path d="M59.997 58.966L57.4438 27.1653C57.4435 27.1626 57.4429 27.16 57.4426 27.1573C57.436 27.0818 57.4205 27.0089 57.3974 26.9395C57.3949 26.932 57.3919 26.9246 57.3893 26.917C57.3794 26.8897 57.3685 26.863 57.3562 26.837C57.3522 26.8284 57.3482 26.8199 57.3439 26.8114C57.3307 26.7853 57.3164 26.7599 57.3009 26.7351C57.297 26.7289 57.2934 26.7223 57.2894 26.7161C57.2695 26.6858 57.2481 26.6566 57.2248 26.6288C57.2213 26.6244 57.217 26.6205 57.2133 26.6161C57.1937 26.5934 57.173 26.5716 57.1513 26.5508C57.1433 26.543 57.1348 26.5356 57.1264 26.5282C57.1068 26.5106 57.0865 26.494 57.0654 26.478C57.0572 26.4719 57.0492 26.4655 57.0408 26.4596C57.0091 26.4373 56.9764 26.4163 56.9421 26.398L30.9575 12.1994V7.02128H40.9329C41.4618 7.02128 41.8904 6.5926 41.8904 6.06383V0.957447C41.8904 0.428681 41.4618 0 40.9329 0H30C29.4711 0 29.0426 0.428681 29.0426 0.957447V12.1994L3.05722 26.3985C3.02339 26.4167 2.99122 26.4373 2.96007 26.4592C2.95113 26.4655 2.94271 26.4721 2.93403 26.4786C2.91347 26.4942 2.89369 26.5104 2.87454 26.5275C2.86573 26.5353 2.85692 26.5431 2.84849 26.5511C2.82743 26.5713 2.80739 26.5925 2.78824 26.6146C2.78403 26.6194 2.7793 26.624 2.77522 26.6289C2.75224 26.6565 2.73092 26.6854 2.71113 26.7156C2.70679 26.7222 2.70309 26.7291 2.69888 26.7357C2.68369 26.7601 2.66952 26.785 2.65649 26.8108C2.65215 26.8195 2.64794 26.8283 2.64373 26.8372C2.63173 26.863 2.62088 26.8893 2.61118 26.9163C2.60837 26.924 2.6053 26.9317 2.60262 26.9395C2.57952 27.0088 2.56407 27.0816 2.55743 27.1569C2.55718 27.1596 2.55654 27.1623 2.55628 27.1649L0.00309016 58.9657C-0.0183566 59.2321 0.072537 59.4952 0.253814 59.6917C0.43509 59.8883 0.690154 60 0.957473 60H59.0426C59.3099 60 59.565 59.8883 59.7462 59.692C59.9275 59.4955 60.0184 59.2324 59.997 58.966ZM30.9575 1.91489H39.9755V5.10638H30.9575V1.91489ZM43.6664 26.2843L34.5923 16.3677L52.7404 26.2843H43.6664ZM30 17.483C29.4711 17.483 29.0426 17.9117 29.0426 18.4404V26.2843H18.9293L30 14.1855L41.0708 26.2843H30.9575V18.4404C30.9575 17.9117 30.5289 17.483 30 17.483ZM7.25952 26.2843L25.4077 16.3677L16.3337 26.2843H7.25952ZM30 37.0213C33.1502 37.0213 35.7679 39.3442 36.2306 42.367H23.7695C24.2321 39.3442 26.8499 37.0213 30 37.0213ZM23.6968 44.2819H36.3032V58.0851H23.6968V44.2819ZM45.4411 58.0851L44.3551 31.0331C44.3339 30.5048 43.8925 30.0968 43.36 30.1149C42.8316 30.1362 42.4205 30.5816 42.4417 31.11L43.5247 58.0851H38.2181V43.3245C38.2181 39.1171 35.0393 35.64 30.9575 35.164V31.0716C30.9575 30.5428 30.5289 30.1141 30 30.1141C29.4711 30.1141 29.0426 30.5428 29.0426 31.0716V35.164C24.9608 35.64 21.7819 39.1169 21.7819 43.3245V58.0851H16.4754L17.5583 31.11C17.5795 30.5816 17.1683 30.1362 16.6401 30.1149C16.1096 30.0964 15.6662 30.5049 15.645 31.0331L14.559 58.0851H1.99483L4.39432 28.1992H29.9988C30.0013 28.1992 43.2437 28.1992 43.2437 28.1992C43.2464 28.1992 55.6057 28.1992 55.6057 28.1992L58.0052 58.0851H45.4411Z" fill="white"/>
</svg>
