<svg width="56" height="56" viewBox="0 0 56 56" fill="none" xmlns="http://www.w3.org/2000/svg">
<path d="M53 50.5H48V48C48.663 48 49.2989 47.7366 49.7678 47.2678C50.2366 46.7989 50.5 46.163 50.5 45.5C50.5 44.837 50.2366 44.2011 49.7678 43.7322C49.2989 43.2634 48.663 43 48 43V40.5C48.663 40.5 49.2989 40.2366 49.7678 39.7678C50.2366 39.2989 50.5 38.663 50.5 38C50.5 37.337 50.2366 36.7011 49.7678 36.2322C49.2989 35.7634 48.663 35.5 48 35.5V33C48 32.337 47.7366 31.7011 47.2678 31.2322C46.7989 30.7634 46.163 30.5 45.5 30.5C44.837 30.5 44.2011 30.7634 43.7322 31.2322C43.2634 31.7011 43 32.337 43 33V35.5H28V33C28 32.337 27.7366 31.7011 27.2678 31.2322C26.7989 30.7634 26.163 30.5 25.5 30.5C24.837 30.5 24.2011 30.7634 23.7322 31.2322C23.2634 31.7011 23 32.337 23 33V35.5C22.337 35.5 21.7011 35.7634 21.2322 36.2322C20.7634 36.7011 20.5 37.337 20.5 38C20.5 38.663 20.7634 39.2989 21.2322 39.7678C21.7011 40.2366 22.337 40.5 23 40.5V43C22.337 43 21.7011 43.2634 21.2322 43.7322C20.7634 44.2011 20.5 44.837 20.5 45.5C20.5 46.163 20.7634 46.7989 21.2322 47.2678C21.7011 47.7366 22.337 48 23 48V50.5H15.5V30.25C18.3215 29.6698 20.8566 28.1345 22.6782 25.9031C24.4998 23.6717 25.4964 20.8805 25.5 18V13C25.5 9.68479 24.183 6.50537 21.8388 4.16117C19.4946 1.81696 16.3152 0.5 13 0.5C9.68479 0.5 6.50537 1.81696 4.16117 4.16117C1.81696 6.50537 0.5 9.68479 0.5 13V18C0.503636 20.8805 1.50023 23.6717 3.3218 25.9031C5.14337 28.1345 7.67853 29.6698 10.5 30.25V50.5H3C2.33696 50.5 1.70107 50.7634 1.23223 51.2322C0.763392 51.7011 0.5 52.337 0.5 53C0.5 53.663 0.763392 54.2989 1.23223 54.7678C1.70107 55.2366 2.33696 55.5 3 55.5H53C53.663 55.5 54.2989 55.2366 54.7678 54.7678C55.2366 54.2989 55.5 53.663 55.5 53C55.5 52.337 55.2366 51.7011 54.7678 51.2322C54.2989 50.7634 53.663 50.5 53 50.5ZM5.5 18V13C5.5 11.0109 6.29018 9.10322 7.6967 7.6967C9.10322 6.29018 11.0109 5.5 13 5.5C14.9891 5.5 16.8968 6.29018 18.3033 7.6967C19.7098 9.10322 20.5 11.0109 20.5 13V18C20.5 19.9891 19.7098 21.8968 18.3033 23.3033C16.8968 24.7098 14.9891 25.5 13 25.5C11.0109 25.5 9.10322 24.7098 7.6967 23.3033C6.29018 21.8968 5.5 19.9891 5.5 18ZM28 40.5H43V43H28V40.5ZM28 48H43V50.5H28V48Z" fill="white"/>
</svg>
