<svg width="60" height="60" viewBox="0 0 60 60" fill="none" xmlns="http://www.w3.org/2000/svg">
<path d="M12 34C12 32.8954 11.1046 32 10 32C8.89544 32 8 32.8954 8 34H12ZM52 34C52 32.8954 51.1044 32 50 32C48.8956 32 48 32.8954 48 34H52ZM22 42V40H20V42H22ZM38 42H40V40H38V42ZM0 60H60V56H0V60ZM29.0077 20.2635L1.00772 36.2635L2.99228 39.7365L30.9923 23.7365L29.0077 20.2635ZM58.9924 36.2635L30.9923 20.2635L29.0077 23.7365L57.0076 39.7365L58.9924 36.2635ZM28 0V10H32V0H28ZM28 10V22H32V10H28ZM20 12H30V8H20V12ZM30 12H40V8H30V12ZM8 34V58H12V34H8ZM48 34V58H52V34H48ZM24 58V42H20V58H24ZM22 44H38V40H22V44ZM36 42V58H40V42H36Z" fill="white"/>
</svg>
