<svg width="60" height="60" viewBox="0 0 60 60" fill="none" xmlns="http://www.w3.org/2000/svg">
<path d="M30 0C13.4579 0 0 13.4579 0 30C0 46.5421 13.4579 60 30 60C46.5421 60 60 46.5421 60 30C60 13.4579 46.5421 0 30 0ZM41.4464 30.4839V18.871H42.5218V30.4839H41.4464ZM55.8758 34.38V35.499H37.6745V34.38H55.8758ZM50.2085 30.4839V22.7419H51.2837V30.4839H50.2085ZM30 3.22581C44.7634 3.22581 56.7742 15.2366 56.7742 30C56.7742 30.3868 56.764 30.7713 56.7477 31.1542H54.5095V21.129C54.5095 20.2384 53.7873 19.5161 52.8966 19.5161H48.5956C47.705 19.5161 46.9827 20.2384 46.9827 21.129V31.1542H45.7476V17.2581C45.7476 16.3674 45.0253 15.6452 44.1347 15.6452H39.8335C38.9429 15.6452 38.2206 16.3674 38.2206 17.2581V31.1542H36.0616C35.171 31.1542 34.4487 31.8765 34.4487 32.7671V36.0484H3.91484C3.46419 34.104 3.22581 32.0794 3.22581 30C3.22581 15.2366 15.2366 3.22581 30 3.22581ZM6.75742 43.2795H27.1977C28.0885 43.2795 28.8106 42.5573 28.8106 41.6666C28.8106 40.776 28.0885 40.0537 27.1977 40.0537H5.18661C5.08161 39.7956 4.97984 39.5361 4.88274 39.2742H51.6285C51.3163 39.5226 50.9816 39.7839 50.6295 40.0537H36.0618C35.1711 40.0537 34.4489 40.776 34.4489 41.6666C34.4489 42.5573 35.1711 43.2795 36.0618 43.2795H46.0621C45.6674 43.5358 45.2631 43.7932 44.8474 44.051C44.8316 44.0505 44.8163 44.0485 44.8003 44.0485H38.5419C37.6513 44.0485 36.929 44.7708 36.929 45.6615C36.929 46.5521 37.6513 47.2744 38.5419 47.2744H39.0014C32.2887 50.5126 23.2845 53.2747 14.0147 51.4655C11.0713 49.2681 8.59339 46.4803 6.75742 43.2795ZM30 56.7742C26.8881 56.7742 23.8994 56.2387 21.1187 55.2581C23.9192 55.1826 26.7858 54.7926 29.6985 54.0871C34.296 52.9734 39.0177 51.0768 43.7331 48.4497C48.3027 45.9037 51.9458 43.1921 54.2711 41.2955C50.0034 50.4294 40.7295 56.7742 30 56.7742Z" fill="white"/>
<path d="M18.3007 23.9745C18.5973 24.0182 18.8922 24.0394 19.1834 24.0394C22.1217 24.0394 24.7023 21.8815 25.1433 18.8897C25.628 15.6015 23.347 12.5318 20.0586 12.0469C16.7692 11.5637 13.7007 13.8434 13.216 17.1316C12.7315 20.42 15.0125 23.4897 18.3007 23.9745ZM16.4075 17.6021C16.6125 16.2113 17.812 15.2082 19.178 15.2082C19.3133 15.2082 19.4504 15.2182 19.5883 15.2384C21.117 15.4637 22.1773 16.8908 21.952 18.4195C21.7268 19.9481 20.2999 21.0073 18.771 20.7832C17.2425 20.5577 16.1822 19.1307 16.4075 17.6021Z" fill="white"/>
</svg>
