<svg width="46" height="60" viewBox="0 0 46 60" fill="none" xmlns="http://www.w3.org/2000/svg">
<path d="M45.2429 12.8177L41.4339 11.8084C41.3349 11.7868 41.2535 11.7063 41.2319 11.6062L40.2274 7.79834C40.201 7.68749 40.1028 7.60803 39.9881 7.60803C39.8734 7.60803 39.7753 7.68749 39.7488 7.79834L38.7443 11.6062C38.7216 11.7063 38.6411 11.7867 38.5412 11.8084L34.7333 12.8177C34.6215 12.8402 34.543 12.9384 34.543 13.053C34.543 13.1679 34.6215 13.2669 34.7333 13.2885L38.5412 14.2979C38.6413 14.3185 38.7216 14.4 38.7443 14.4999L39.7488 18.3078C39.7752 18.4196 39.8734 18.498 39.9881 18.498C40.1029 18.498 40.201 18.4196 40.2274 18.3078L41.2319 14.4999C41.2535 14.3999 41.3349 14.3184 41.4339 14.2979L45.2429 13.2885C45.3538 13.2669 45.4332 13.1678 45.4332 13.053C45.4332 12.9384 45.3538 12.8402 45.2429 12.8177Z" fill="white"/>
<path d="M11.0106 54.4558L7.29239 53.471C7.19583 53.4494 7.11638 53.3709 7.09528 53.273L6.11478 49.5562C6.08923 49.4482 5.9936 49.3708 5.88134 49.3708C5.76895 49.3708 5.67333 49.4483 5.64778 49.5562L4.66739 53.273C4.64536 53.3709 4.56685 53.4494 4.46876 53.471L0.752041 54.4558C0.643174 54.4774 0.56665 54.5736 0.56665 54.6854C0.56665 54.7972 0.643174 54.8944 0.752041 54.9159L4.46876 55.9008C4.56685 55.9203 4.64536 55.9998 4.66739 56.098L5.64778 59.8146C5.67333 59.9235 5.76895 60 5.88134 60C5.9936 60 6.08923 59.9235 6.11478 59.8146L7.09528 56.098C7.11638 55.9998 7.19583 55.9203 7.29239 55.9008L11.0106 54.9159C11.1186 54.8944 11.196 54.7972 11.196 54.6854C11.196 54.5736 11.1186 54.4774 11.0106 54.4558Z" fill="white"/>
<path d="M44.8908 50.6117L41.7842 49.7886C41.7033 49.771 41.637 49.7053 41.6194 49.6239L40.8003 46.5183C40.7787 46.4281 40.6988 46.3634 40.605 46.3634C40.5113 46.3634 40.4313 46.4282 40.4099 46.5183L39.5908 49.6239C39.5721 49.7053 39.5069 49.7711 39.4251 49.7886L36.3195 50.6117C36.2283 50.6303 36.1646 50.7108 36.1646 50.8038C36.1646 50.8971 36.2283 50.9786 36.3195 50.9961L39.4251 51.8192C39.507 51.8358 39.5722 51.9026 39.5908 51.9839L40.4099 55.0895C40.4313 55.1808 40.5114 55.2445 40.605 55.2445C40.6988 55.2445 40.7786 55.1808 40.8003 55.0895L41.6194 51.9839C41.637 51.9026 41.7033 51.8359 41.7842 51.8192L44.8908 50.9961C44.981 50.9786 45.0458 50.8971 45.0458 50.8038C45.0458 50.7108 44.981 50.6303 44.8908 50.6117Z" fill="white"/>
<path d="M9.71066 23.9747L12.5382 24.7241C12.6127 24.7388 12.6726 24.8005 12.6892 24.8732L13.4352 27.7021C13.4548 27.7846 13.5275 27.8425 13.6128 27.8425C13.6981 27.8425 13.7707 27.7846 13.7903 27.7021L14.5363 24.8732C14.5525 24.8005 14.6127 24.7388 14.6869 24.7241L17.5149 23.9747C17.5973 23.959 17.6561 23.8843 17.6561 23.7981C17.6561 23.7137 17.5973 23.6412 17.5149 23.6244L14.6869 22.8751C14.6129 22.8585 14.5525 22.7997 14.5363 22.7241L13.7903 19.897C13.7707 19.8147 13.6981 19.7558 13.6128 19.7558C13.5275 19.7558 13.4548 19.8147 13.4352 19.897L12.6892 22.7241C12.6726 22.7997 12.6127 22.8585 12.5382 22.8751L9.71066 23.6244C9.62781 23.6412 9.56934 23.7137 9.56934 23.7981C9.56934 23.8845 9.62769 23.9591 9.71066 23.9747Z" fill="white"/>
<path d="M11.219 19.0584C13.095 18.5659 15.3143 18.1814 17.7152 17.947C17.929 16.663 18.1635 15.6526 18.4039 14.8973C15.7892 15.6153 13.4016 16.8837 11.3745 18.5688C11.3215 18.7277 11.2706 18.8916 11.219 19.0584Z" fill="white"/>
<path d="M19.6326 17.7929C22.1059 17.6359 24.6976 17.6359 27.171 17.7929C27.0092 16.3529 26.8306 15.2709 26.6482 14.5058C25.5938 14.3224 24.5089 14.2263 23.4018 14.2263C22.2948 14.2263 21.2099 14.3224 20.1544 14.5058C19.973 15.2709 19.7939 16.354 19.6326 17.7929Z" fill="white"/>
<path d="M35.4288 18.5688C33.4017 16.8837 31.015 15.6152 28.3994 14.8973C28.6387 15.6526 28.8743 16.663 29.0875 17.947C31.4888 18.1815 33.7082 18.566 35.5832 19.0584C35.5327 18.8916 35.4807 18.7277 35.4302 18.5699L35.4288 18.5688Z" fill="white"/>
<path d="M9.40884 20.8691C9.24267 20.9181 9.07931 20.9701 8.92075 21.0222C7.23513 23.0497 5.96716 25.4373 5.24927 28.0534C6.00501 27.8132 7.01341 27.5767 8.2979 27.3648C8.53228 24.9635 8.91735 22.7427 9.40884 20.8691Z" fill="white"/>
<path d="M19.0725 26.4535C21.9009 26.3653 24.9026 26.3653 27.731 26.4535C27.6422 23.7 27.4971 21.2263 27.3181 19.2506C24.7505 19.0965 22.0525 19.0965 19.4854 19.2506C19.3064 21.2262 19.1613 23.701 19.0725 26.4535Z" fill="white"/>
<path d="M29.3042 19.3997C29.5686 21.3684 29.7814 23.8187 29.9124 26.5398C32.6335 26.6704 35.0828 26.8832 37.0516 27.148C36.8231 24.6623 36.4488 22.3796 35.9745 20.4777C34.0721 20.004 31.79 19.6282 29.3042 19.3997Z" fill="white"/>
<path d="M37.3945 20.8691C37.886 22.7427 38.27 24.9625 38.5055 27.3648C39.79 27.5787 40.7979 27.8132 41.5532 28.0505C40.8352 25.4364 39.5673 23.0497 37.8817 21.0222C37.7232 20.9702 37.5608 20.9191 37.3945 20.8691Z" fill="white"/>
<path d="M8.14403 36.8189C7.98759 34.345 7.98759 31.7555 8.14403 29.2815C6.70509 29.4423 5.62251 29.6229 4.85739 29.8044C4.67446 30.8579 4.57837 31.9429 4.57837 33.0503C4.57837 34.1568 4.67446 35.2417 4.85739 36.2972C5.62251 36.4785 6.70497 36.6571 8.14403 36.8189Z" fill="white"/>
<path d="M16.8052 37.38C16.7168 34.5501 16.7163 31.5504 16.8052 28.7215C14.0508 28.8107 11.5783 28.9559 9.60178 29.1345C9.44826 31.7025 9.44873 34.3981 9.60178 36.9661C11.5778 37.1446 14.0507 37.2897 16.8052 37.38Z" fill="white"/>
<path d="M19.014 28.6636C18.9537 31.5279 18.9537 34.5727 19.014 37.4379C21.8792 37.4978 24.924 37.4967 27.7892 37.4379C27.8491 34.5727 27.8491 31.5279 27.7892 28.6636C24.924 28.6017 21.8792 28.6017 19.014 28.6636Z" fill="white"/>
<path d="M37.2017 36.9661C37.3547 34.3981 37.3547 31.7005 37.2017 29.1345C35.2251 28.954 32.7522 28.8107 29.9983 28.7215C30.0861 31.5495 30.0867 34.5511 29.9983 37.38C32.7522 37.2897 35.2251 37.1466 37.2017 36.9661Z" fill="white"/>
<path d="M41.946 36.2971V36.296C42.129 35.2416 42.225 34.1566 42.225 33.0502C42.225 31.9427 42.129 30.8578 41.946 29.8043C41.1814 29.6228 40.0984 29.4423 38.6584 29.2814C38.8149 31.7553 38.8149 34.3439 38.6584 36.8188C40.0984 36.6571 41.1814 36.4785 41.946 36.2971Z" fill="white"/>
<path d="M5.24927 38.048C5.96728 40.6631 7.23606 43.0516 8.92286 45.0792C9.0813 45.1313 9.24302 45.1822 9.40895 45.2323C8.91747 43.3568 8.53251 41.1359 8.29802 38.7366C7.01341 38.5218 6.00513 38.2873 5.24927 38.048Z" fill="white"/>
<path d="M10.8288 45.6237C12.7312 46.0964 15.0128 46.4712 17.499 46.6997C17.2346 44.7309 17.0213 42.2817 16.8908 39.5606C14.1697 39.4301 11.7202 39.2173 9.75171 38.9524C9.97976 41.439 10.3545 43.7207 10.8288 45.6237Z" fill="white"/>
<path d="M19.0725 39.6469C19.1613 42.4003 19.3064 44.8741 19.4855 46.8507C22.0531 47.0038 24.7506 47.0038 27.3182 46.8507C27.4971 44.8732 27.6423 42.4003 27.7311 39.6469C24.9026 39.7351 21.9009 39.7342 19.0725 39.6469Z" fill="white"/>
<path d="M29.9124 39.5606C29.7814 42.2817 29.5686 44.733 29.3042 46.6997C31.7899 46.4721 34.072 46.0984 35.9745 45.6237C36.4488 43.7208 36.8231 41.4381 37.0516 38.9524C35.0828 39.2162 32.6335 39.4311 29.9124 39.5606Z" fill="white"/>
<path d="M37.8796 45.0792C39.5662 43.0516 40.8352 40.6641 41.5532 38.048C40.7979 38.2873 39.79 38.5218 38.5055 38.7366C38.2711 41.1368 37.886 43.3567 37.3945 45.2323C37.5602 45.1822 37.7211 45.1313 37.8796 45.0792Z" fill="white"/>
<path d="M11.2202 47.043C11.2707 47.2087 11.3228 47.3716 11.3737 47.5296C13.4008 49.2158 15.7884 50.4851 18.4031 51.2021C18.1638 50.4469 17.9293 49.4375 17.7159 48.1524C15.3145 47.919 13.0952 47.5345 11.2202 47.043Z" fill="white"/>
<path d="M19.6326 48.3075C19.7939 49.7455 19.973 50.8294 20.1544 51.5936C21.2099 51.777 22.2948 51.8732 23.4018 51.8732C24.5087 51.8732 25.5937 51.7771 26.6492 51.5936C26.8306 50.8294 27.0092 49.7475 27.171 48.3075C24.6976 48.4643 22.106 48.4653 19.6326 48.3075Z" fill="white"/>
<path d="M28.3994 51.2021C31.015 50.4852 33.4026 49.2147 35.4302 47.5285C35.4818 47.3696 35.5327 47.2078 35.5832 47.043C33.7082 47.5345 31.4888 47.919 29.0875 48.1524C28.8741 49.4374 28.6387 50.4458 28.3994 51.2021Z" fill="white"/>
<path d="M25.0254 3.75107H21.7776V12.7922H25.0254V3.75107Z" fill="white"/>
<path d="M28.0879 0H18.8511V2.51109H28.0879V0Z" fill="white"/>
</svg>
