<svg width="60" height="60" viewBox="0 0 60 60" fill="none" xmlns="http://www.w3.org/2000/svg">
<path d="M59.4986 57.0432L56.4061 50.4651V26.9532L59.4925 20.3884C59.4932 20.387 59.4939 20.3855 59.4946 20.3841L59.499 20.3751C59.941 19.4345 59.6172 18.2991 58.7303 17.7386C58.7297 17.7384 58.7293 17.7379 58.7287 17.7375L31.1043 0.319101C30.4295 -0.106408 29.5705 -0.106408 28.8956 0.319101L1.27154 17.7375C0.380215 18.2968 0.0553704 19.4496 0.507481 20.3884L3.59374 26.9532V50.4652L0.501153 57.0434C-0.144317 58.4163 0.857872 60.0001 2.37569 60.0001H57.6241C59.14 60 60.145 58.4181 59.4986 57.0432ZM29.9999 4.52473L50.4675 17.4184H9.53223L29.9999 4.52473ZM5.61733 55.8525L6.91859 53.0874C24.1026 53.0874 37.5444 53.0874 53.0814 53.0874L54.3827 55.8525H5.61733ZM7.74136 48.9398V28.4785H11.7507V48.9398H7.74136ZM15.8983 48.9398V28.4785H23.917V48.9398H15.8983ZM28.0644 48.9398V28.4785H32.0738V48.9398H28.0644ZM36.0831 48.9398V28.4785H44.1018V48.9398H36.0831ZM48.2493 48.9398V28.4785H52.2586V48.9398H48.2493ZM53.0814 24.331C35.8974 24.331 22.4556 24.331 6.91859 24.331L5.61733 21.5659H54.3827L53.0814 24.331Z" fill="white"/>
</svg>
