<svg width="60" height="60" viewBox="0 0 60 60" fill="none" xmlns="http://www.w3.org/2000/svg">
<path d="M56.0694 0C55.8592 0.04437 47.281 1.97942 38.1412 4.99053C33.4709 6.52914 28.5852 8.38116 24.39 10.5171C20.1948 12.653 16.6607 14.98 14.681 18.0287C11.0588 23.6069 10.3124 31.2695 10.2979 37.5602C10.2864 42.5443 10.7929 46.6881 11.0059 48.2132L0 60L5.50739 59.9831L14.1212 50.7044C15.9835 50.9602 19.3803 51.348 23.2626 51.4001C29.0948 51.4783 35.9892 50.9744 40.5992 47.4717C43.0266 45.6275 45.171 42.3602 47.3499 38.417C49.5289 34.4738 51.6469 29.8563 53.5165 25.4351C57.2557 16.5928 60 8.51722 60 8.51722L56.5687 7.16349C56.5687 7.16349 53.862 15.1224 50.1911 23.8031C49.5303 25.3657 48.8374 26.9504 48.1256 28.5144H37.9987V32.4507H46.2625C45.5833 33.8285 44.8965 35.161 44.2098 36.4036C44.051 36.6911 43.8915 36.9723 43.7319 37.2502H31.1628V41.1865H41.2216C40.2043 42.5988 39.2601 43.6721 38.4929 44.255C35.2666 46.7063 28.839 47.5382 23.3083 47.4641C20.9451 47.4324 18.9793 47.2922 17.4329 47.1368L58.5443 2.85231L56.0694 0ZM51.0682 5.3082L14.2831 44.7034C14.1105 42.9896 13.9452 40.6068 13.9522 37.57C13.9658 31.6507 14.8579 24.6241 17.6755 20.285C18.2215 19.4442 19.1277 18.529 20.3066 17.5969V29.368H23.9609V15.1561C24.5954 14.7896 25.2596 14.4281 25.9516 14.0757C26.7429 13.6729 27.568 13.2783 28.4168 12.8921V21.0353H32.0711V11.3379C34.4077 10.4046 36.8337 9.53782 39.21 8.75494C43.6356 7.29694 47.8696 6.1286 51.0682 5.3082Z" fill="white"/>
</svg>
