<svg width="58" height="60" viewBox="0 0 58 60" fill="none" xmlns="http://www.w3.org/2000/svg">
<path d="M24.6281 19.015L23.1206 27.1372C23.1206 27.1372 35.6741 27.1372 35.9047 27.3839C35.0462 17.7833 24.6281 19.015 24.6281 19.015Z" fill="white"/>
<path d="M22.6433 34.5222L20.866 31.5683L16.2773 31.7731L18.472 18.989H17.2422L17.3686 19.372C16.3577 19.7531 10.6978 21.1052 10.5342 27.0129L15.129 26.3569L14.1179 34.7269L22.6433 34.5222Z" fill="white"/>
<path d="M23.1125 38.16H15.2361L14.1558 39.6374H24.7404L23.1125 38.16Z" fill="white"/>
<path d="M56.813 28.1622C56.7329 27.3047 53.9134 22.406 53.1912 22.1603C52.4691 21.9135 53.2464 17.4833 51.8021 16.9909C50.3558 16.4985 51.8021 12.4865 48.0199 9.25477C45.5986 7.18665 45.75 3.945 42.337 3.45153C38.9218 2.96004 39.018 1.48266 36.0643 1.48266C33.5899 1.48266 28.8216 -0.731948 27.2811 0.251958C25.7414 1.23692 20.3253 1.23692 19.0315 2.22188C17.7377 3.20579 14.2271 4.19075 11.0657 7.3902C3.9284 14.6179 4.9334 20.2156 3.41887 22.8984C2.86434 23.8845 2.06981 28.5613 0.926411 31.0216C-0.21687 33.484 2.66559 38.4066 2.60044 39.3916C2.53727 40.3766 3.5152 44.3143 3.0618 47.5138C2.61051 50.7154 5.89633 53.1757 8.73977 54.8979C10.4548 58.8386 14.227 57.6059 14.227 57.6059L13.4958 59.7543L15.6954 59.9999L16.8619 56.7021L20.3884 53.8125H27.4575L35.7864 42.9823L37.8917 37.0737L36.0562 35.9443C36.0562 35.9443 34.7845 40.3745 34.2438 41.1148C33.7052 41.8519 26.7012 51.2067 26.7012 51.2067L13.9182 50.9611C13.9182 50.9611 10.0095 42.8368 9.36755 41.3595C8.7236 39.8851 8.0486 31.2675 8.0486 31.2675L8.77282 27.1422C8.77282 27.1422 9.66051 25.3598 8.80294 23.391C10.162 13.7904 17.5901 8.63204 25.606 7.14458C25.606 7.14458 48.2797 10.9288 39.7552 54.8998C39.7552 54.8998 39.2236 59.3311 41.4071 59.8225C43.5906 60.3139 45.5243 59.6198 46.9736 59.331C49.435 58.8384 50.3347 60.0812 51.3978 58.8505C52.4621 57.6207 56.0487 47.5579 56.4859 45.2289C56.9784 42.6031 57.2493 39.3915 57.3285 38.1599C57.4077 36.9293 57.123 31.4561 56.813 28.1622Z" fill="white"/>
<path d="M20.6342 43.5761L21.6192 42.5912H17.6804L18.1739 43.5761H20.6342Z" fill="white"/>
</svg>
