<svg width="46" height="60" viewBox="0 0 46 60" fill="none" xmlns="http://www.w3.org/2000/svg">
<path d="M44.7711 0H1.229C0.692242 0 0.25708 0.435162 0.25708 0.971922V59.0281C0.25708 59.5648 0.692242 60 1.229 60H44.7711C45.3079 60 45.743 59.5648 45.743 59.0281V0.971922C45.743 0.435162 45.3079 0 44.7711 0ZM2.20092 3.31827L4.40395 5.5213V54.4786L2.20092 56.6816V3.31827ZM6.34779 53.9093V6.09071H39.6523V53.9093H6.34779ZM40.2217 4.14687H5.77838L3.57535 1.94384H42.4246L40.2217 4.14687ZM5.77838 55.8531H40.2216L42.4246 58.0562H3.57535L5.77838 55.8531ZM41.5962 54.4787V5.5213L43.7992 3.31827V56.6816L41.5962 54.4787Z" fill="white"/>
<path d="M36.4773 8.29373H9.5227C8.98594 8.29373 8.55078 8.72889 8.55078 9.26565V50.7343C8.55078 51.2711 8.98594 51.7063 9.5227 51.7063H36.4773C37.0141 51.7063 37.4493 51.2711 37.4493 50.7343V9.26565C37.4493 8.72889 37.0141 8.29373 36.4773 8.29373ZM20.2618 30.1388C19.8988 29.9885 19.4806 30.0714 19.2027 30.3495L18.7389 30.8133C17.6586 31.8936 15.9008 31.8937 14.8185 30.8112C14.1343 30.127 13.855 29.1188 14.0897 28.18L17.8164 13.2728L19.2043 18.8246C19.0904 18.8029 18.9733 18.7905 18.8532 18.7905C17.8171 18.7905 16.9741 19.6335 16.9741 20.6695C16.9741 21.7056 17.8171 22.5486 18.8532 22.5486C19.2989 22.5486 19.7086 22.3918 20.0311 22.1314L23.0511 34.2117H20.8618V31.0367C20.8618 30.6435 20.625 30.2892 20.2618 30.1388ZM18.918 20.6695C18.918 20.7053 18.8889 20.7343 18.8532 20.7343C18.8174 20.7343 18.7884 20.7053 18.7884 20.6695C18.7884 20.6338 18.8174 20.6047 18.8532 20.6047C18.8889 20.6047 18.918 20.6338 18.918 20.6695ZM19.8899 46.4255C21.9122 46.4255 23.6057 47.8586 24.0095 49.7624H15.7702C16.174 47.8586 17.8675 46.4255 19.8899 46.4255ZM20.8618 44.5591V41.5528L25.0982 42.4L26.9388 49.7624H25.9821C25.6015 47.0996 23.5113 44.9812 20.8618 44.5591ZM22.0735 39.8127L24.0414 38.1727L24.5766 40.3133L22.0735 39.8127ZM28.6713 48.6777L25.6995 36.7909L26.7323 35.9301C27.0467 35.6682 27.1634 35.2374 27.024 34.8526C26.8847 34.4679 26.5193 34.2115 26.1102 34.2115H25.0548L22.7664 25.0578C24.1862 26.1479 26.0997 26.7925 28.1188 26.7925C30.4126 26.7925 32.5701 25.9608 34.022 24.5889C34.9942 27.1266 35.5054 29.8406 35.5054 32.5918C35.5054 38.6912 33.031 44.4723 28.6713 48.6777ZM33.094 22.743C32.8069 23.0988 32.4546 23.4166 32.055 23.6925C32.1284 23.3877 32.1685 23.0699 32.1685 22.743C32.1685 22.416 32.1284 22.0983 32.055 21.7935C32.4546 22.0694 32.8067 22.3871 33.094 22.743ZM30.2246 22.743C30.2246 23.9041 29.2799 24.8488 28.1188 24.8488C26.9577 24.8488 26.013 23.9041 26.013 22.743C26.013 21.5819 26.9577 20.6371 28.1188 20.6371C29.2799 20.6371 30.2246 21.5819 30.2246 22.743ZM24.1827 23.6925C23.783 23.4165 23.4309 23.0988 23.1436 22.743C23.4308 22.3871 23.783 22.0694 24.1827 21.7935C24.1092 22.0983 24.0691 22.416 24.0691 22.743C24.0691 23.0699 24.1092 23.3877 24.1827 23.6925ZM28.1188 18.6933C25.6101 18.6933 23.2636 19.6875 21.8258 21.2961L19.2738 11.0883C23.5977 12.3209 27.4986 14.8612 30.3904 18.3599C30.6043 18.6188 30.8118 18.8822 31.0132 19.1498C30.1067 18.854 29.126 18.6933 28.1188 18.6933ZM10.4946 10.2376H16.5716L12.2039 27.7086C11.8045 29.3059 12.2797 31.0213 13.446 32.1877C14.9243 33.6658 17.1476 33.9553 18.918 33.0562V35.1836C18.918 35.7203 19.3531 36.1555 19.8899 36.1555H23.4257L19.2677 39.6205C19.0461 39.8051 18.918 40.0787 18.918 40.3672V44.5591C16.2685 44.9813 14.1782 47.0996 13.7976 49.7624H10.4946V10.2376ZM35.5054 49.7624H30.3426C32.5554 47.548 34.2989 44.9517 35.5054 42.1214V49.7624ZM31.8888 17.1215C29.4008 14.1114 26.2246 11.7543 22.6768 10.2376H35.5054V23.0759C34.597 20.9393 33.3834 18.9298 31.8888 17.1215Z" fill="white"/>
</svg>
