<svg width="48" height="40" viewBox="0 0 48 40" fill="none" xmlns="http://www.w3.org/2000/svg">
<path d="M48 22V30C48 31.1044 47.1044 32 46 32C44.8956 32 44 31.1044 44 30C44 30 44.24 28 40 28H36V38C36 39.1044 35.1044 40 34 40H2C0.8956 40 0 39.1044 0 38V22C0 20.8956 0.8956 20 2 20H34C35.1044 20 36 20.8956 36 22V24H40C44.24 24 44 22 44 22C44 20.8956 44.8956 20 46 20C47.1044 20 48 20.8956 48 22ZM8 4C3.5816 4 0 7.5816 0 12C0 16.4184 3.5816 20 8 20C12.4184 20 16 16.4184 16 12C16 7.5816 12.4184 4 8 4ZM8 16C5.7908 16 4 14.2092 4 12C4 9.7908 5.7908 8 8 8C10.2092 8 12 9.7908 12 12C12 14.2092 10.2092 16 8 16ZM26 0C20.4772 0 16 4.4772 16 10C16 15.5228 20.4772 20 26 20C31.5228 20 36 15.5228 36 10C36 4.4772 31.5228 0 26 0ZM26 16C22.6864 16 20 13.3136 20 10C20 6.6864 22.6864 4 26 4C29.3136 4 32 6.6864 32 10C32 13.3136 29.3136 16 26 16Z" fill="white"/>
</svg>
