2<svg width="45" height="45" viewBox="0 0 45 45" fill="none" xmlns="http://www.w3.org/2000/svg">
<circle cx="22.5" cy="22.5" r="22" fill="#F8F9FA" stroke="#DEE2E6"/>
<g clip-path="url(#clip0_192_678)">
<path fill-rule="evenodd" clip-rule="evenodd" d="M23 11.5002C22.4091 11.5002 21.8239 11.6166 21.2779 11.8427C20.732 12.0689 20.2359 12.4003 19.818 12.8182C19.4002 13.2361 19.0687 13.7321 18.8425 14.2781C18.6164 14.8241 18.5 15.4092 18.5 16.0002C18.5 16.5911 18.6164 17.1763 18.8425 17.7223C19.0687 18.2682 19.4002 18.7643 19.818 19.1822C20.2359 19.6 20.732 19.9315 21.2779 20.1576C21.8239 20.3838 22.4091 20.5002 23 20.5002C24.1935 20.5002 25.3381 20.0261 26.182 19.1822C27.0259 18.3382 27.5 17.1937 27.5 16.0002C27.5 14.8067 27.0259 13.6621 26.182 12.8182C25.3381 11.9743 24.1935 11.5002 23 11.5002ZM17 16.0002C17.0001 14.8455 17.3334 13.7154 17.9598 12.7455C18.5863 11.7755 19.4793 11.0069 20.5318 10.5319C21.5842 10.0569 22.7513 9.8957 23.8931 10.0676C25.0349 10.2395 26.1029 10.7371 26.9688 11.5009C27.8348 12.2647 28.462 13.2621 28.7751 14.3735C29.0883 15.4849 29.0741 16.663 28.7343 17.7666C28.3945 18.8701 27.7434 19.8521 26.8593 20.5948C25.9752 21.3375 24.8956 21.8093 23.75 21.9537V30.2502C23.75 30.4491 23.671 30.6399 23.5303 30.7805C23.3897 30.9212 23.1989 31.0002 23 31.0002C22.8011 31.0002 22.6103 30.9212 22.4697 30.7805C22.329 30.6399 22.25 30.4491 22.25 30.2502V21.9552C20.7994 21.7724 19.4655 21.0663 18.4988 19.9695C17.5321 18.8727 16.9991 17.4607 17 15.9987V16.0002ZM20.7395 28.8612C20.772 29.0573 20.7254 29.2583 20.6098 29.42C20.4942 29.5818 20.3191 29.691 20.123 29.7237C19.055 29.9007 18.203 30.1662 17.6405 30.4632C17.4339 30.5625 17.2461 30.697 17.0855 30.8607C17.0492 30.9002 17.0202 30.946 17 30.9957V31.0002L17.003 31.0122C17.0089 31.0296 17.017 31.0462 17.027 31.0617C17.0862 31.1485 17.1598 31.2246 17.2445 31.2867C17.492 31.4817 17.897 31.6917 18.464 31.8792C19.5905 32.2542 21.194 32.5002 23 32.5002C24.806 32.5002 26.4095 32.2557 27.536 31.8792C28.103 31.6902 28.508 31.4817 28.7555 31.2867C28.8407 31.2247 28.9148 31.1486 28.9745 31.0617C28.984 31.0462 28.9916 31.0295 28.997 31.0122L29 31.0002V30.9942C28.9798 30.9445 28.9508 30.8987 28.9145 30.8592C28.7538 30.696 28.566 30.562 28.3595 30.4632C27.7955 30.1662 26.945 29.9007 25.877 29.7237C25.7775 29.7102 25.6817 29.6769 25.5954 29.6257C25.509 29.5745 25.4338 29.5065 25.3742 29.4257C25.3146 29.345 25.2718 29.253 25.2484 29.1554C25.225 29.0578 25.2214 28.9564 25.2379 28.8574C25.2543 28.7584 25.2905 28.6637 25.3443 28.5789C25.398 28.4941 25.4683 28.421 25.5508 28.3638C25.6334 28.3067 25.7265 28.2667 25.8248 28.2462C25.9231 28.2258 26.0245 28.2252 26.123 28.2447C27.278 28.4352 28.301 28.7367 29.0585 29.1357C29.75 29.5002 30.5 30.1002 30.5 31.0002C30.5 31.6392 30.11 32.1282 29.684 32.4657C29.249 32.8077 28.664 33.0852 28.01 33.3027C26.693 33.7422 24.9215 34.0002 23 34.0002C21.0785 34.0002 19.307 33.7422 17.99 33.3027C17.336 33.0852 16.751 32.8077 16.316 32.4657C15.89 32.1282 15.5 31.6392 15.5 31.0002C15.5 30.1017 16.25 29.5002 16.9415 29.1357C17.699 28.7367 18.722 28.4352 19.877 28.2447C20.0731 28.2121 20.2741 28.2588 20.4358 28.3744C20.5976 28.49 20.7068 28.6651 20.7395 28.8612Z" fill="black"/>
</g>
<defs>
<clipPath id="clip0_192_678">
<rect width="24" height="24" fill="white" transform="translate(11 10)"/>
</clipPath>
</defs>
</svg>
