<svg width="22" height="21" viewBox="0 0 22 21" fill="none" xmlns="http://www.w3.org/2000/svg">
<path fill-rule="evenodd" clip-rule="evenodd" d="M21.1236 0.273217C21.2308 0.380519 21.303 0.517813 21.3306 0.666978C21.3582 0.816143 21.3399 0.970166 21.2781 1.10872L12.7926 20.2007C12.7333 20.3342 12.6363 20.4475 12.5135 20.5267C12.3908 20.6059 12.2475 20.6474 12.1014 20.6463C11.9553 20.6452 11.8128 20.6015 11.6912 20.5204C11.5696 20.4394 11.4744 20.3246 11.4171 20.1902L8.35562 13.0412L1.20512 9.97822C1.07121 9.92062 0.956984 9.82524 0.876418 9.70375C0.795851 9.58226 0.752436 9.43993 0.751481 9.29416C0.750526 9.14839 0.792073 9.0055 0.871041 8.88296C0.950009 8.76043 1.06297 8.66357 1.19612 8.60422L20.2881 0.118717C20.4265 0.0572885 20.5802 0.0391711 20.7291 0.066747C20.8779 0.0943228 21.0149 0.166301 21.1221 0.273217H21.1236Z" fill="#54595E"/>
</svg>
