<svg width="18" height="18" viewBox="0 0 18 18" fill="none" xmlns="http://www.w3.org/2000/svg">
<g clip-path="url(#clip0_83_125)">
<path fill-rule="evenodd" clip-rule="evenodd" d="M16.7 13.4V6.80002C16.7 6.50829 16.5841 6.2285 16.3778 6.02221C16.1715 5.81592 15.8917 5.70002 15.6 5.70002H14.3108C13.436 5.69955 12.5972 5.35177 11.9788 4.73312L11.0658 3.82232C10.86 3.61656 10.5812 3.50067 10.2903 3.50002H7.71075C7.41904 3.50009 7.13929 3.61602 6.93305 3.82232L6.02225 4.73312C5.40353 5.35204 4.56429 5.69984 3.68915 5.70002H2.39995C2.10821 5.70002 1.82842 5.81592 1.62213 6.02221C1.41584 6.2285 1.29995 6.50829 1.29995 6.80002V13.4C1.29995 13.6918 1.41584 13.9716 1.62213 14.1778C1.82842 14.3841 2.10821 14.5 2.39995 14.5H15.6C15.8917 14.5 16.1715 14.3841 16.3778 14.1778C16.5841 13.9716 16.7 13.6918 16.7 13.4ZM2.39995 4.60002C1.81647 4.60002 1.2569 4.83181 0.844316 5.24439C0.431736 5.65697 0.199951 6.21655 0.199951 6.80002L0.199951 13.4C0.199951 13.9835 0.431736 14.5431 0.844316 14.9557C1.2569 15.3682 1.81647 15.6 2.39995 15.6H15.6C16.1834 15.6 16.743 15.3682 17.1556 14.9557C17.5682 14.5431 17.8 13.9835 17.8 13.4V6.80002C17.8 6.21655 17.5682 5.65697 17.1556 5.24439C16.743 4.83181 16.1834 4.60002 15.6 4.60002H14.3108C13.7273 4.5999 13.1678 4.36803 12.7554 3.95542L11.8446 3.04462C11.4321 2.63202 10.8726 2.40015 10.2892 2.40002H7.71075C7.12732 2.40015 6.56784 2.63202 6.15535 3.04462L5.24455 3.95542C4.83207 4.36803 4.27258 4.5999 3.68915 4.60002H2.39995Z" fill="#5227FC"/>
<path fill-rule="evenodd" clip-rule="evenodd" d="M8.9999 12.3C9.72925 12.3 10.4287 12.0103 10.9444 11.4946C11.4602 10.9788 11.7499 10.2794 11.7499 9.55001C11.7499 8.82067 11.4602 8.12119 10.9444 7.60547C10.4287 7.08974 9.72925 6.80001 8.9999 6.80001C8.27056 6.80001 7.57108 7.08974 7.05536 7.60547C6.53963 8.12119 6.2499 8.82067 6.2499 9.55001C6.2499 10.2794 6.53963 10.9788 7.05536 11.4946C7.57108 12.0103 8.27056 12.3 8.9999 12.3V12.3ZM8.9999 13.4C10.021 13.4 11.0002 12.9944 11.7223 12.2724C12.4443 11.5504 12.8499 10.5711 12.8499 9.55001C12.8499 8.52893 12.4443 7.54967 11.7223 6.82765C11.0002 6.10564 10.021 5.70001 8.9999 5.70001C7.97882 5.70001 6.99956 6.10564 6.27754 6.82765C5.55553 7.54967 5.1499 8.52893 5.1499 9.55001C5.1499 10.5711 5.55553 11.5504 6.27754 12.2724C6.99956 12.9944 7.97882 13.4 8.9999 13.4V13.4Z" fill="#5227FC"/>
<path d="M3.4999 7.35002C3.4999 7.49589 3.44196 7.63578 3.33881 7.73893C3.23567 7.84207 3.09577 7.90002 2.9499 7.90002C2.80403 7.90002 2.66414 7.84207 2.56099 7.73893C2.45785 7.63578 2.3999 7.49589 2.3999 7.35002C2.3999 7.20415 2.45785 7.06425 2.56099 6.96111C2.66414 6.85796 2.80403 6.80002 2.9499 6.80002C3.09577 6.80002 3.23567 6.85796 3.33881 6.96111C3.44196 7.06425 3.4999 7.20415 3.4999 7.35002V7.35002Z" fill="#5227FC"/>
</g>
<defs>
<clipPath id="clip0_83_125">
<rect width="17.6" height="17.6" fill="white" transform="translate(0.199951 0.200012)"/>
</clipPath>
</defs>
</svg>
