<svg width="28" height="32" viewBox="0 0 28 32" fill="none" xmlns="http://www.w3.org/2000/svg">
<path d="M18.5734 15.2C18.5014 16.044 17.7974 16.7027 16.9414 16.7027C16.0374 16.7027 15.3028 15.9693 15.3028 15.064C15.3028 14.1587 16.0361 13.4253 16.9401 13.4253C17.8508 13.464 18.5734 14.212 18.5734 15.128C18.5734 15.1533 18.5734 15.1773 18.5721 15.2027V15.1987L18.5734 15.2ZM11.1014 13.4267C10.1841 13.508 9.47078 14.272 9.47078 15.2027C9.47078 16.1333 10.1841 16.8973 11.0948 16.9787H11.1014C12.0121 16.94 12.7348 16.192 12.7348 15.276C12.7348 15.2507 12.7348 15.2267 12.7334 15.2013V15.2053C12.7348 15.1787 12.7361 15.148 12.7361 15.116C12.7361 14.2027 12.0148 13.4587 11.1108 13.424H11.1081L11.1014 13.4267ZM28.0001 3.296V32C23.9694 28.4373 25.2574 29.6173 20.5761 25.264L21.4241 28.224H3.27878C1.46678 28.2187 -0.0012207 26.7493 -0.0012207 24.936C-0.0012207 24.9333 -0.0012207 24.9307 -0.0012207 24.928V3.296C-0.0012207 3.29333 -0.0012207 3.29067 -0.0012207 3.288C-0.0012207 1.47467 1.46678 0.00533429 3.27745 9.53674e-07H24.7188C26.5308 0.00533429 27.9988 1.47467 27.9988 3.288L28.0001 3.296ZM23.4401 18.464C23.3841 15.052 22.5388 11.8507 21.0801 9.016L21.1361 9.136C19.9041 8.16133 18.3521 7.54267 16.6588 7.45733L16.6401 7.456L16.4161 7.712C17.9494 8.128 19.2828 8.828 20.4188 9.75867L20.4001 9.744C18.5348 8.71867 16.3121 8.11467 13.9481 8.11467C11.9574 8.11467 10.0668 8.54267 8.36278 9.312L8.44811 9.27734C7.85611 9.54934 7.50411 9.744 7.50411 9.744C8.68278 8.78133 10.0934 8.056 11.6374 7.664L11.7121 7.648L11.5521 7.456C9.84011 7.54267 8.28811 8.16133 7.04011 9.148L7.05611 9.136C5.65345 11.8507 4.80811 15.052 4.75211 18.4453V18.464C5.81745 19.9453 7.53611 20.8987 9.47611 20.8987C9.53078 20.8987 9.58545 20.8973 9.64011 20.896H9.63211C9.63211 20.896 10.2241 20.176 10.7041 19.568C9.54945 19.2707 8.58145 18.5987 7.91345 17.6933L7.90411 17.68C8.13878 17.8453 8.52811 18.0587 8.55745 18.08C10.1694 18.976 12.0934 19.5027 14.1414 19.5027C15.7294 19.5027 17.2428 19.1853 18.6214 18.612L18.5441 18.64C19.2481 18.3707 19.8534 18.0533 20.4161 17.676L20.3828 17.6973C19.6814 18.6347 18.6801 19.3133 17.5241 19.5947L17.4894 19.6013C17.9694 20.2093 18.5454 20.8973 18.5454 20.8973C18.5894 20.8987 18.6414 20.8987 18.6934 20.8987C20.6414 20.8987 22.3668 19.9467 23.4294 18.4813L23.4401 18.464Z" fill="black"/>
</svg>
