<svg width="28" height="28" viewBox="0 0 28 28" fill="none" xmlns="http://www.w3.org/2000/svg">
<path d="M18.0973 0.666668H9.91675C2.4445 0.666668 0.666748 2.44442 0.666748 9.90275V18.0833C0.666748 25.5555 2.43067 27.3333 9.90283 27.3333H18.0834C25.5557 27.3333 27.3334 25.5694 27.3334 18.0972V9.91667C27.3334 2.44442 25.5695 0.666668 18.0973 0.666668ZM22.1945 19.6944H20.2501C19.514 19.6944 19.2917 19.0972 17.9723 17.7777C16.8195 16.6667 16.3334 16.5277 16.0417 16.5277C15.639 16.5277 15.5278 16.6388 15.5278 17.1944V18.9444C15.5278 19.4167 15.3751 19.6944 14.139 19.6944C12.9395 19.6138 11.7763 19.2494 10.7453 18.6313C9.71417 18.0131 8.84469 17.1588 8.20841 16.1388C6.69789 14.2587 5.64689 12.0521 5.139 9.69441C5.139 9.40275 5.25008 9.13884 5.80567 9.13884H7.75008C8.25008 9.13884 8.43067 9.36108 8.62508 9.875C9.56949 12.6527 11.1807 15.0694 11.8334 15.0694C12.0834 15.0694 12.1945 14.9583 12.1945 14.3333V11.4722C12.1112 10.1667 11.4167 10.0555 11.4167 9.58333C11.4259 9.45876 11.4832 9.34265 11.5766 9.25966C11.6699 9.17667 11.792 9.13333 11.9167 9.13884H14.9723C15.389 9.13884 15.5278 9.34717 15.5278 9.84717V13.7083C15.5278 14.125 15.7084 14.2638 15.8334 14.2638C16.0834 14.2638 16.2778 14.125 16.7362 13.6667C17.7211 12.4656 18.5258 11.1274 19.1251 9.69441C19.1862 9.52198 19.3022 9.37432 19.4552 9.27399C19.6082 9.17367 19.7898 9.1262 19.9723 9.13884H21.9167C22.5001 9.13884 22.6251 9.43051 22.5001 9.84717C21.7926 11.4316 20.9172 12.9356 19.889 14.3333C19.6807 14.6527 19.5973 14.8194 19.889 15.1944C20.0834 15.4861 20.764 16.0555 21.2223 16.5972C21.889 17.2622 22.4425 18.0316 22.8612 18.875C23.0278 19.4167 22.7501 19.6944 22.1945 19.6944Z" fill="black"/>
</svg>
